<?xml version="1.0" standalone="no"?>
<!DOCTYPE svg PUBLIC "-//W3C//DTD SVG 20010904//EN"
 "http://www.w3.org/TR/2001/REC-SVG-20010904/DTD/svg10.dtd">
<svg version="1.0" xmlns="http://www.w3.org/2000/svg"
 width="260.000000pt" height="260.000000pt" viewBox="0 0 260.000000 260.000000"
 preserveAspectRatio="xMidYMid meet">
<metadata>
Created by potrace 1.14, written by Peter Selinger 2001-2017
</metadata>
<g transform="translate(0.000000,260.000000) scale(0.100000,-0.100000)"
fill="#000000" stroke="none">
<path d="M470 2591 c0 -6 4 -13 10 -16 6 -3 7 1 4 9 -7 18 -14 21 -14 7z"/>
<path d="M655 2590 c-3 -6 1 -7 9 -4 18 7 21 14 7 14 -6 0 -13 -4 -16 -10z"/>
<path d="M696 2591 c-3 -5 1 -14 9 -21 12 -10 18 -10 30 0 8 7 15 18 14 24 0
7 -2 6 -6 -2 -2 -6 -10 -9 -15 -6 -7 5 -8 2 -3 -6 5 -8 3 -11 -6 -8 -8 3 -13
11 -11 17 2 13 -5 15 -12 2z"/>
<path d="M772 2591 c5 -16 44 -25 53 -12 3 5 0 13 -6 17 -8 5 -9 3 -5 -5 10
-15 -25 -11 -37 4 -5 6 -7 4 -5 -4z"/>
<path d="M935 2591 c-6 -11 13 -26 22 -17 4 3 17 -1 30 -9 13 -9 23 -11 23 -6
0 11 -39 26 -59 22 -7 -1 -10 2 -6 8 3 6 4 11 1 11 -3 0 -7 -4 -11 -9z"/>
<path d="M1011 2593 c-1 -17 16 -25 25 -12 4 7 3 9 -4 5 -5 -3 -13 0 -15 6 -4
9 -6 10 -6 1z"/>
<path d="M1135 2590 c-3 -6 1 -7 9 -4 18 7 21 14 7 14 -6 0 -13 -4 -16 -10z"/>
<path d="M1176 2591 c-3 -5 1 -14 9 -21 12 -10 18 -10 30 0 8 7 15 18 14 24 0
7 -2 6 -6 -2 -2 -6 -10 -9 -15 -6 -7 5 -8 2 -3 -6 5 -8 3 -11 -6 -8 -8 3 -13
11 -11 17 2 13 -5 15 -12 2z"/>
<path d="M1252 2591 c5 -16 44 -25 53 -12 3 5 0 13 -6 17 -8 5 -9 3 -5 -5 10
-15 -25 -11 -37 4 -5 6 -7 4 -5 -4z"/>
<path d="M1415 2591 c-6 -11 13 -26 22 -17 4 3 17 -1 30 -9 13 -9 23 -11 23
-6 0 11 -39 26 -59 22 -7 -1 -10 2 -6 8 3 6 4 11 1 11 -3 0 -7 -4 -11 -9z"/>
<path d="M1491 2593 c-1 -17 16 -25 25 -12 4 7 3 9 -4 5 -5 -3 -13 0 -15 6 -4
9 -6 10 -6 1z"/>
<path d="M1615 2590 c-3 -6 1 -7 9 -4 18 7 21 14 7 14 -6 0 -13 -4 -16 -10z"/>
<path d="M1656 2591 c-3 -5 1 -14 9 -21 12 -10 18 -10 30 0 8 7 15 18 14 24 0
7 -2 6 -6 -2 -2 -6 -10 -9 -15 -6 -7 5 -8 2 -3 -6 5 -8 3 -11 -6 -8 -8 3 -13
11 -11 17 2 13 -5 15 -12 2z"/>
<path d="M1732 2591 c5 -16 44 -25 53 -12 3 5 0 13 -6 17 -8 5 -9 3 -5 -5 10
-15 -25 -11 -37 4 -5 6 -7 4 -5 -4z"/>
<path d="M1895 2591 c-6 -11 13 -26 22 -17 4 3 17 -1 30 -9 13 -9 23 -11 23
-6 0 11 -39 26 -59 22 -7 -1 -10 2 -6 8 3 6 4 11 1 11 -3 0 -7 -4 -11 -9z"/>
<path d="M1971 2593 c-1 -17 16 -25 25 -12 4 7 3 9 -4 5 -5 -3 -13 0 -15 6 -4
9 -6 10 -6 1z"/>
<path d="M2137 2593 c-4 -3 0 -15 10 -25 9 -10 11 -18 5 -18 -6 0 -13 4 -17 9
-3 5 -19 9 -36 9 -17 -1 -25 -4 -18 -8 6 -4 20 -5 32 -2 15 4 18 2 12 -8 -6
-9 -4 -11 4 -5 10 5 9 2 0 -13 -7 -12 -18 -18 -23 -15 -6 4 -5 8 2 11 7 2 9 8
6 13 -3 6 -12 5 -22 -3 -13 -11 -14 -11 -7 1 6 11 4 13 -11 7 -10 -5 -26 -8
-34 -7 -8 1 -23 1 -32 2 -16 0 -16 2 2 21 28 31 17 34 -13 4 -14 -14 -22 -28
-18 -32 3 -3 -9 1 -27 10 -18 9 -37 14 -42 11 -5 -3 -11 -1 -15 5 -12 19 -37
11 -30 -10 5 -15 2 -18 -14 -15 -11 2 -23 -1 -26 -6 -4 -5 -12 -6 -18 -2 -22
14 -49 14 -41 1 6 -10 4 -10 -8 0 -13 10 -19 10 -31 -3 -14 -14 -16 -13 -14 4
0 11 4 19 8 18 12 -3 11 17 0 21 -6 2 -11 -1 -11 -7 0 -13 -47 -15 -55 -2 -3
5 -19 9 -36 9 -17 -1 -25 -4 -18 -8 6 -4 20 -5 32 -2 15 4 18 2 12 -8 -6 -9
-4 -11 4 -5 10 5 9 2 0 -13 -7 -12 -18 -18 -23 -15 -6 4 -5 8 2 11 7 2 9 8 6
13 -3 6 -12 5 -22 -3 -13 -11 -14 -11 -7 1 6 11 4 13 -11 7 -10 -5 -26 -8 -34
-7 -8 1 -23 1 -32 2 -16 0 -16 2 2 21 28 31 17 34 -13 4 -14 -14 -22 -28 -18
-32 3 -3 -9 1 -27 10 -18 9 -37 14 -42 11 -5 -3 -11 -1 -15 5 -12 19 -37 11
-30 -10 5 -15 2 -18 -14 -15 -11 2 -23 -1 -26 -6 -4 -5 -12 -6 -18 -2 -22 14
-49 14 -41 1 6 -10 4 -10 -8 0 -13 10 -19 10 -31 -3 -14 -14 -16 -13 -14 4 0
11 4 19 7 18 3 -1 6 2 8 8 2 5 -1 11 -7 13 -6 2 -11 -1 -11 -7 0 -13 -47 -15
-55 -2 -3 5 -19 9 -36 9 -17 -1 -25 -4 -18 -8 6 -4 20 -5 32 -2 15 4 18 2 12
-8 -6 -9 -4 -11 4 -5 10 5 9 2 0 -13 -7 -12 -18 -18 -23 -15 -6 4 -5 8 2 11 7
2 9 8 6 13 -3 6 -12 5 -22 -3 -13 -11 -14 -11 -7 1 6 11 4 13 -11 7 -10 -5
-26 -8 -34 -7 -8 1 -23 1 -32 2 -16 0 -16 2 2 21 28 31 17 34 -13 4 -14 -14
-22 -28 -18 -32 3 -3 -9 1 -27 10 -18 9 -37 14 -42 11 -5 -3 -11 -1 -15 5 -12
19 -37 11 -30 -10 5 -15 2 -18 -14 -15 -11 2 -23 -1 -26 -6 -4 -5 -12 -6 -18
-2 -22 14 -49 14 -41 1 6 -10 4 -10 -8 0 -13 10 -19 10 -31 -3 -14 -14 -16
-13 -14 4 0 11 4 19 7 18 3 -1 6 2 8 8 2 5 -1 11 -7 13 -6 2 -11 -1 -11 -7 0
-14 -47 -15 -55 -1 -3 5 -17 9 -30 8 -13 -1 -21 -6 -19 -10 3 -4 0 -8 -5 -8
-6 0 -11 6 -11 14 0 8 -5 18 -11 22 -7 4 -9 0 -5 -13 5 -15 1 -19 -21 -21 -14
-1 -34 -9 -44 -18 -15 -14 -17 -14 -15 3 0 10 -5 17 -11 16 -7 -2 -13 1 -13 6
0 5 6 11 13 14 6 2 9 8 4 13 -4 4 -14 -2 -22 -14 l-15 -21 -34 20 c-24 14 -36
17 -41 9 -4 -7 -2 -17 4 -23 17 -17 13 -24 -12 -23 -12 1 -28 -3 -36 -8 -11
-8 -13 -8 -8 0 4 7 -9 10 -37 10 -26 -1 -43 -6 -43 -13 0 -7 5 -9 10 -6 6 3 7
1 3 -5 -4 -6 -14 -8 -24 -5 -14 5 -15 3 -4 -8 18 -19 15 -33 -4 -15 -8 9 -23
15 -32 15 -16 -1 -16 -2 0 -6 11 -3 15 -12 12 -29 -3 -18 -1 -23 7 -18 7 4 4
-4 -7 -18 -10 -15 -23 -25 -28 -25 -4 1 -10 -6 -11 -16 -2 -10 1 -14 7 -11 7
5 9 -2 4 -20 -5 -21 -4 -26 6 -20 10 6 9 3 -1 -9 -7 -10 -9 -17 -3 -17 6 0 9
-8 8 -17 -2 -10 2 -21 8 -25 8 -6 7 -8 -1 -8 -7 0 -10 -7 -7 -17 5 -15 4 -15
-4 -3 -6 8 -8 19 -5 25 4 5 2 7 -2 2 -12 -11 -12 -55 0 -51 6 3 11 -11 11 -35
0 -22 -3 -38 -8 -35 -4 3 -8 0 -8 -5 0 -6 6 -11 13 -11 8 0 7 -4 -3 -10 -13
-9 -13 -10 0 -11 10 0 8 -3 -5 -9 -16 -7 -17 -9 -3 -9 9 -1 20 -6 24 -13 5 -7
3 -8 -6 -3 -10 6 -12 3 -8 -13 4 -12 2 -20 -3 -16 -5 3 -9 0 -9 -5 0 -6 6 -11
13 -12 6 0 3 -4 -8 -9 -17 -7 -17 -9 -2 -9 9 -1 17 -6 17 -12 0 -5 -4 -8 -8
-5 -5 3 -9 -1 -9 -9 0 -8 3 -12 6 -10 9 5 6 -38 -3 -53 -4 -7 -3 -12 3 -12 5
0 8 -8 7 -17 -2 -10 2 -21 8 -25 8 -6 7 -8 -1 -8 -7 0 -10 -7 -7 -17 5 -15 4
-15 -4 -3 -6 8 -8 19 -5 25 4 5 2 7 -2 2 -12 -11 -12 -55 0 -51 12 5 13 -35 1
-54 -4 -7 -3 -12 3 -12 5 0 8 -8 7 -17 -2 -10 2 -21 8 -25 8 -6 7 -8 -1 -8 -7
0 -10 -7 -7 -17 5 -15 4 -15 -4 -3 -6 8 -8 19 -5 25 4 5 2 7 -2 2 -5 -4 -9
-18 -10 -31 0 -17 4 -22 15 -18 13 5 13 3 1 -11 -11 -14 -11 -17 0 -18 8 0 5
-4 -6 -9 -16 -7 -17 -9 -3 -9 9 -1 20 -6 24 -13 5 -7 3 -8 -6 -3 -10 6 -12 3
-8 -13 4 -12 2 -20 -3 -16 -5 3 -9 0 -9 -5 0 -6 6 -11 13 -12 6 0 3 -4 -8 -9
-17 -7 -17 -9 -2 -9 9 -1 17 -6 17 -12 0 -5 -4 -8 -8 -5 -5 3 -9 -1 -9 -9 0
-8 3 -12 7 -10 3 2 6 -14 6 -35 0 -21 -3 -37 -8 -34 -4 3 -8 0 -8 -5 0 -6 4
-11 8 -11 10 0 9 -30 -2 -48 -4 -6 -3 -12 3 -12 5 0 8 -8 7 -17 -2 -10 2 -21
8 -25 8 -6 7 -8 -1 -8 -7 0 -10 -7 -7 -17 5 -15 4 -15 -4 -3 -6 8 -8 19 -5 25
4 5 2 7 -2 2 -12 -11 -12 -55 0 -51 6 3 11 -11 11 -35 0 -22 -3 -38 -8 -35 -4
3 -8 0 -8 -5 0 -6 6 -11 13 -11 8 0 7 -4 -3 -10 -13 -9 -13 -10 0 -11 10 0 8
-3 -5 -9 -16 -7 -17 -9 -3 -9 9 -1 20 -6 24 -13 5 -7 3 -8 -6 -3 -10 6 -12 3
-8 -13 4 -12 2 -20 -3 -16 -5 3 -9 0 -9 -5 0 -6 6 -11 13 -12 6 0 3 -4 -8 -9
-17 -7 -17 -9 -2 -9 9 -1 17 -6 17 -12 0 -5 -4 -8 -8 -5 -5 3 -9 -1 -9 -9 0
-8 3 -12 6 -10 9 5 6 -38 -3 -53 -4 -7 -3 -12 3 -12 5 0 8 -8 7 -17 -2 -10 2
-21 8 -25 8 -6 7 -8 -1 -8 -7 0 -10 -7 -7 -17 5 -15 4 -15 -4 -3 -6 8 -8 19
-5 25 4 5 2 7 -2 2 -12 -11 -12 -55 0 -51 12 5 13 -35 1 -54 -4 -7 -3 -12 3
-12 5 0 8 -8 7 -17 -2 -10 2 -21 8 -25 8 -6 7 -8 -1 -8 -7 0 -10 -7 -7 -18 5
-14 4 -14 -4 -2 -6 8 -8 19 -5 25 4 5 2 7 -2 2 -5 -4 -9 -18 -10 -31 0 -17 4
-22 15 -18 13 5 13 3 1 -11 -11 -14 -11 -17 0 -18 8 0 5 -4 -6 -9 -17 -7 -17
-9 -2 -9 9 -1 17 -6 17 -12 0 -5 -6 -7 -12 -3 -8 5 -7 0 2 -11 8 -10 10 -16 3
-12 -7 5 -10 1 -8 -10 1 -10 -2 -24 -8 -31 -8 -10 -7 -12 4 -10 8 2 14 -6 15
-22 2 -44 4 -50 15 -50 8 0 7 5 -1 15 -9 11 -10 19 -3 26 8 8 11 6 10 -7 -1
-11 3 -18 10 -17 6 1 14 -4 17 -13 3 -8 2 -12 -3 -9 -5 3 -13 0 -17 -6 -4 -8
-3 -9 4 -5 7 4 12 3 12 -3 0 -6 7 -7 17 -4 9 4 14 2 11 -3 -5 -8 23 -43 29
-36 9 8 23 0 17 -10 -4 -7 -3 -8 4 -4 6 4 9 14 6 24 -3 9 2 6 10 -8 14 -24 17
-24 20 -1 0 5 4 13 8 17 4 3 6 -3 3 -15 -2 -14 1 -21 11 -21 8 0 13 4 9 9 -3
5 -1 12 4 16 6 3 8 -4 6 -15 -5 -26 4 -52 15 -45 5 3 11 1 15 -4 3 -7 15 -7
30 -1 30 11 51 -9 32 -30 -10 -12 -9 -12 5 -1 9 7 16 18 14 24 -1 7 -1 9 1 4
3 -4 9 -4 15 -1 5 3 8 -2 6 -11 -2 -10 4 -20 12 -22 11 -3 11 -2 3 4 -9 6 -6
12 10 22 20 13 21 13 9 -1 -10 -13 -10 -17 3 -22 8 -3 15 -1 15 4 0 20 16 9
17 -12 1 -13 -1 -18 -5 -13 -10 14 -32 17 -32 5 0 -5 7 -11 15 -11 8 -1 21 -2
28 -3 6 -1 15 3 19 9 5 6 8 6 8 -2 0 -7 -8 -17 -17 -23 -17 -11 -16 -11 1 -5
11 3 23 0 28 -7 6 -8 7 -5 3 10 -6 21 -5 22 13 11 12 -7 18 -18 14 -24 -3 -5
2 -4 11 4 14 11 17 11 18 0 1 -8 1 -18 0 -22 -1 -5 4 -5 10 -1 8 5 10 2 7 -8
-4 -9 0 -15 8 -15 12 0 11 5 -2 25 -9 13 -11 21 -5 18 6 -4 11 -3 11 3 0 5 -5
12 -10 14 -6 3 -5 4 2 3 7 -2 13 -9 13 -17 1 -26 20 -48 45 -53 14 -2 24 -8
23 -14 -2 -7 12 -5 35 4 31 12 34 12 19 1 -16 -13 -16 -15 -2 -21 9 -3 13 -2
10 4 -7 11 15 13 39 4 13 -5 14 -9 5 -20 -9 -11 -9 -14 0 -14 7 0 10 -4 7 -9
-4 -5 2 -8 11 -6 10 1 23 -2 30 -7 7 -6 15 -3 23 9 10 17 11 16 5 -2 -4 -16 0
-21 17 -22 18 -2 19 0 8 7 -13 8 -13 11 -1 22 11 11 13 11 6 -1 -6 -11 -4 -13
11 -7 10 4 15 4 12 0 -9 -8 9 -44 22 -44 5 0 12 9 15 20 4 11 11 17 17 14 6
-4 5 -10 -3 -16 -11 -7 -11 -11 -1 -15 6 -2 10 -8 7 -12 -2 -4 9 -7 24 -6 19
1 27 -2 24 -10 -2 -7 3 -15 11 -18 10 -4 13 -1 10 7 -3 8 0 17 7 22 8 4 10 3
5 -4 -4 -7 3 -14 19 -18 13 -3 22 -10 19 -15 -3 -5 2 -6 10 -3 9 3 13 11 9 18
-3 6 -1 6 8 -1 17 -17 32 -17 23 0 -6 9 -5 9 8 0 8 -7 19 -9 23 -5 5 4 5 -1 2
-10 -3 -10 -1 -20 5 -24 6 -4 8 -3 4 4 -3 6 -2 13 4 17 6 4 7 12 3 18 -4 7 0
6 10 -2 19 -15 23 -36 5 -25 -7 4 -8 3 -4 -5 11 -17 28 -2 21 19 -3 10 0 22 6
26 8 4 9 3 5 -4 -4 -7 -4 -12 1 -13 4 0 18 -2 30 -3 13 -2 19 2 16 9 -2 7 3
15 12 19 9 3 18 -1 22 -10 5 -12 8 -11 20 6 8 11 18 18 22 16 4 -3 8 1 8 9 0
10 -4 12 -12 5 -9 -7 -14 -6 -18 4 -4 10 -1 13 8 10 7 -3 23 4 34 15 20 20 31
15 12 -5 -6 -5 -3 -15 7 -24 14 -13 15 -12 9 3 -3 9 -2 17 4 17 6 0 7 6 3 13
-5 8 -2 8 9 -2 15 -12 17 -11 17 3 0 19 29 17 57 -4 17 -14 17 -14 3 4 -14 18
-13 19 4 12 19 -7 19 -6 2 13 -13 14 -14 21 -5 27 7 4 10 3 6 -3 -9 -14 16
-23 33 -13 11 7 11 12 -1 27 -13 16 -12 17 3 5 9 -7 18 -9 20 -5 3 4 3 1 1 -7
-2 -8 -1 -11 3 -7 4 4 14 1 23 -6 14 -10 14 -10 3 4 -10 14 -10 18 3 23 11 4
14 2 9 -6 -4 -7 -3 -8 4 -4 7 4 12 15 13 24 0 12 3 11 9 -6 5 -12 15 -22 22
-21 10 0 10 2 1 6 -7 2 -13 9 -13 14 0 6 5 7 10 4 9 -5 15 16 11 38 -1 5 3 5
9 2 6 -4 9 -13 7 -19 -3 -7 -1 -19 4 -27 8 -11 9 -9 7 6 -2 13 2 19 12 17 11
-3 9 3 -5 20 -19 22 -19 22 -1 8 18 -13 19 -13 14 1 -4 11 0 15 15 13 12 -1
26 -3 30 -3 5 -1 5 -6 1 -12 -5 -8 -1 -8 13 0 11 6 24 7 28 3 5 -4 6 0 3 8 -3
9 0 24 8 35 8 10 14 13 14 6 0 -7 5 -9 12 -5 7 4 8 3 4 -4 -5 -8 0 -12 13 -12
24 0 36 16 20 26 -8 4 -9 3 -5 -4 4 -7 2 -12 -3 -12 -15 0 -13 12 6 35 12 15
14 16 10 3 -5 -13 0 -16 26 -13 18 2 34 4 37 5 3 1 9 2 13 1 5 -1 6 9 2 21 -6
22 -5 22 10 -2 9 -14 14 -17 11 -8 -3 10 -1 20 4 23 6 4 10 2 10 -4 0 -5 9 -9
19 -8 12 1 17 6 14 15 -4 10 -8 11 -13 2 -5 -8 -9 -7 -13 4 -4 9 -3 15 1 15
21 -4 32 2 26 14 -4 6 -3 9 1 4 5 -4 18 1 29 10 16 14 16 12 -3 -9 -23 -26
-22 -48 2 -48 7 0 6 4 -3 10 -8 5 -12 11 -10 13 27 21 72 49 67 40 -7 -11 22
-28 31 -18 3 3 0 5 -7 5 -9 0 -8 4 3 15 16 17 30 20 21 6 -3 -5 0 -13 6 -17 8
-4 9 -3 5 4 -4 7 -2 12 5 12 8 0 5 6 -5 13 -17 12 -16 14 9 31 15 10 32 15 39
13 9 -4 12 4 11 24 -1 17 2 32 6 35 5 2 5 12 2 21 -5 12 -3 14 8 9 8 -4 6 -1
-3 6 -15 13 -15 15 0 26 15 10 15 11 1 6 -19 -6 -35 11 -19 21 6 4 7 11 4 17
-4 7 -2 8 4 4 7 -4 12 -2 12 3 0 6 -6 11 -12 12 -7 0 -4 4 7 9 16 7 17 9 3 9
-9 1 -20 6 -24 13 -4 7 -3 8 4 4 7 -4 12 -2 12 4 0 6 6 8 13 5 6 -4 4 0 -5 8
-19 15 -25 33 -9 22 5 -3 13 -1 16 5 4 6 1 9 -6 8 -15 -4 -20 61 -6 80 6 8 5
12 -4 12 -8 0 -5 6 7 15 18 14 18 14 -4 10 -20 -3 -22 -2 -12 10 7 8 17 12 24
10 6 -3 3 0 -6 7 -15 11 -15 13 0 25 16 12 16 13 1 7 -19 -6 -35 11 -19 21 6
4 7 11 4 17 -4 7 -2 8 4 4 7 -4 12 -2 12 3 0 6 -6 11 -12 12 -7 0 -4 4 7 9 16
7 17 9 3 9 -9 1 -20 6 -24 13 -4 7 -3 8 4 4 7 -4 12 -2 12 4 0 6 6 8 13 5 6
-4 4 0 -5 8 -19 15 -25 33 -9 22 5 -3 13 -1 16 5 4 6 1 9 -6 8 -15 -4 -20 61
-6 80 6 8 5 12 -4 12 -8 0 -5 6 7 15 18 14 18 14 -4 10 -20 -3 -22 -2 -12 10
7 8 17 12 24 9 6 -3 3 1 -6 8 -15 13 -15 15 0 26 15 10 15 11 1 6 -19 -6 -35
11 -19 21 6 4 7 11 4 17 -4 7 -2 8 4 4 7 -4 12 -2 12 3 0 6 -6 11 -12 12 -7 0
-4 4 7 9 16 7 17 9 3 9 -9 1 -20 6 -24 13 -4 7 -3 8 4 4 7 -4 12 -2 12 4 0 6
6 8 13 5 6 -4 4 0 -5 8 -19 15 -25 33 -9 22 5 -3 13 -1 16 5 4 6 1 9 -6 8 -15
-4 -20 61 -6 80 6 8 5 12 -4 12 -8 0 -5 6 7 15 18 14 18 14 -4 10 -20 -3 -22
-2 -12 10 7 8 17 12 24 9 6 -3 3 1 -6 8 -15 13 -15 15 0 26 15 10 15 11 1 6
-19 -6 -35 11 -19 21 6 4 7 11 4 17 -4 7 -2 8 4 4 7 -4 12 -2 12 3 0 6 -6 11
-12 12 -7 0 -4 4 7 9 16 7 17 9 3 9 -9 1 -20 6 -24 13 -4 7 -3 8 4 4 7 -4 12
-2 12 4 0 6 6 8 13 5 6 -4 4 0 -5 8 -19 15 -25 33 -9 22 5 -3 13 -1 16 5 4 6
1 9 -6 8 -15 -4 -20 61 -6 80 6 8 5 12 -4 12 -8 0 -5 6 7 15 18 14 18 14 -4
10 -20 -3 -22 -2 -12 10 7 8 17 12 24 9 6 -3 3 1 -6 8 -15 13 -15 15 0 26 15
10 15 11 1 6 -19 -6 -35 11 -19 21 6 4 7 11 4 17 -4 7 -2 8 4 4 7 -4 12 -2 12
3 0 6 -6 11 -12 12 -7 0 -4 4 7 9 16 7 17 9 3 9 -9 1 -20 6 -24 13 -4 7 -3 8
4 4 7 -4 12 -2 12 4 0 6 6 8 13 5 6 -4 4 0 -5 8 -19 15 -25 33 -9 22 5 -3 13
-1 16 5 4 6 1 9 -6 8 -15 -4 -20 61 -6 80 6 8 5 12 -4 12 -8 0 -5 6 7 15 18
14 18 14 -4 10 -20 -3 -22 -2 -12 10 7 8 17 12 24 9 6 -3 3 1 -6 8 -15 13 -15
15 0 26 15 10 15 11 1 6 -19 -6 -35 11 -19 21 6 4 7 11 4 17 -4 7 -2 8 4 4 7
-4 12 -2 12 3 0 6 -6 11 -12 12 -7 0 -4 4 7 9 16 7 17 9 3 9 -9 1 -20 6 -24
13 -5 7 -3 8 6 3 10 -6 11 -2 6 18 -3 14 -2 29 4 32 6 4 7 -1 4 -12 -5 -15 -4
-15 4 -3 12 16 6 33 -9 25 -5 -4 -9 1 -9 10 0 10 5 13 12 9 7 -4 8 -3 4 4 -4
7 -1 12 6 12 8 0 6 5 -5 11 -10 6 -14 15 -10 22 4 7 8 18 9 25 2 10 -1 10 -12
1 -7 -6 -11 -16 -7 -23 4 -7 1 -6 -9 1 -8 7 -18 9 -23 5 -4 -4 -2 3 4 16 14
26 23 29 15 5 -5 -15 -4 -15 4 -3 11 15 6 34 -8 25 -4 -3 -13 2 -20 10 -7 8
-18 15 -24 15 -6 0 -3 -5 7 -11 19 -11 23 -29 6 -29 -5 0 -7 5 -4 10 6 10 -7
14 -32 11 -7 -1 -13 3 -13 9 0 6 -5 8 -12 4 -7 -4 -8 -3 -4 5 6 9 11 9 22 0
11 -9 14 -8 14 6 0 10 -3 15 -7 12 -3 -4 -13 -1 -21 6 -9 6 -13 7 -10 2 4 -6
-7 -18 -24 -28 -25 -14 -29 -15 -18 -2 9 11 10 18 1 28 -6 8 -7 18 -3 22 4 5
1 5 -6 1 -10 -6 -10 -11 -1 -22 17 -21 -5 -17 -35 7 -14 11 -24 25 -21 30 7
10 1 12 -8 2z m-1687 -34 c0 -5 3 -8 8 -6 4 1 8 -1 10 -5 1 -5 -1 -8 -4 -7 -4
0 -11 -5 -16 -13 -8 -10 -9 -9 -5 4 3 9 -1 19 -9 22 -8 3 -14 10 -14 15 0 6 7
8 15 5 8 -4 15 -10 15 -15z m244 -7 c2 -4 -2 -15 -9 -25 -8 -12 -15 -14 -20
-8 -3 6 -1 11 5 11 6 0 8 5 5 10 -5 7 -11 8 -19 1 -6 -5 -21 -9 -31 -7 -11 2
-26 -4 -33 -13 -11 -14 -12 -13 -3 6 8 16 18 20 35 17 14 -2 28 0 31 6 7 12
32 13 39 2z m241 -2 c3 -5 12 -7 19 -4 8 3 16 1 20 -4 3 -5 -5 -8 -17 -7 -12
1 -26 -3 -30 -9 -6 -7 -7 -5 -4 6 3 9 1 19 -6 22 -9 3 -9 5 0 5 6 1 14 -3 18
-9z m480 0 c3 -5 12 -7 19 -4 8 3 16 1 20 -4 3 -5 -5 -8 -17 -7 -12 1 -26 -3
-30 -9 -6 -7 -7 -5 -4 6 3 9 1 19 -6 22 -9 3 -9 5 0 5 6 1 14 -3 18 -9z m480
0 c3 -5 12 -7 19 -4 8 3 16 1 20 -4 3 -5 -5 -8 -17 -7 -12 1 -26 -3 -30 -9 -6
-7 -7 -5 -4 6 3 9 1 19 -6 22 -9 3 -9 5 0 5 6 1 14 -3 18 -9z m-1375 -14 c-7
-7 -14 -6 -21 1 -9 9 -7 12 9 10 14 -1 18 -5 12 -11z m1661 -3 c13 -17 13 -17
-5 -3 -18 14 -19 13 -12 -5 5 -15 4 -17 -5 -8 -6 6 -8 16 -5 22 9 14 11 14 27
-6z m-1441 3 c0 -2 -7 -6 -15 -10 -8 -3 -15 -1 -15 4 0 6 7 10 15 10 8 0 15
-2 15 -4z m480 0 c0 -2 -7 -6 -15 -10 -8 -3 -15 -1 -15 4 0 6 7 10 15 10 8 0
15 -2 15 -4z m480 0 c0 -2 -7 -6 -15 -10 -8 -3 -15 -1 -15 4 0 6 7 10 15 10 8
0 15 -2 15 -4z m-625 -16 c3 -6 -1 -7 -9 -4 -18 7 -21 14 -7 14 6 0 13 -4 16
-10z m480 0 c3 -6 -1 -7 -9 -4 -18 7 -21 14 -7 14 6 0 13 -4 16 -10z m480 0
c3 -6 -1 -7 -9 -4 -18 7 -21 14 -7 14 6 0 13 -4 16 -10z m339 -99 c-2 -3 -12
3 -22 13 -16 17 -16 18 5 5 12 -7 20 -15 17 -18z m-2143 -1844 c-10 -9 -11 -8
-5 6 3 10 9 15 12 12 3 -3 0 -11 -7 -18z m2133 -35 c3 -5 -1 -9 -9 -9 -8 0
-12 4 -9 9 3 4 7 8 9 8 2 0 6 -4 9 -8z m-1280 -100 c3 -5 -1 -9 -9 -9 -8 0
-12 4 -9 9 3 4 7 8 9 8 2 0 6 -4 9 -8z m-76 -40 c4 -35 -5 -25 -12 12 -3 16
-2 25 1 22 4 -4 9 -19 11 -34z m137 7 c-4 -5 -12 -9 -18 -8 -9 0 -8 2 1 6 6 2
9 10 6 15 -4 7 -2 8 5 4 6 -4 9 -12 6 -17z m273 -7 c-11 -13 -10 -15 4 -9 10
3 20 1 24 -5 4 -6 3 -8 -4 -4 -6 3 -14 1 -17 -4 -5 -7 -11 -5 -19 5 -11 16
-13 15 -27 -1 -12 -15 -12 -17 1 -12 8 3 23 -2 33 -11 15 -12 18 -13 15 -1 -2
8 3 15 10 16 6 1 16 2 22 3 5 0 7 9 4 19 -5 13 -4 14 4 3 6 -8 17 -11 25 -8
11 4 14 1 11 -8 -3 -8 -11 -12 -18 -9 -7 3 -19 -3 -26 -13 -12 -15 -12 -16 0
-5 19 17 30 15 30 -5 0 -13 4 -12 13 7 8 14 19 24 27 22 7 -2 10 3 7 12 -6 15
17 16 30 1 4 -4 2 -5 -4 -1 -7 4 -13 3 -13 -2 0 -16 13 -22 27 -11 9 9 13 8
13 0 0 -6 -5 -11 -11 -11 -8 0 -7 -6 2 -17 10 -11 10 -14 2 -9 -7 4 -14 2 -14
-3 -1 -6 -2 -16 -3 -22 -2 -18 -56 -20 -63 -4 -4 12 -7 12 -20 0 -8 -9 -18
-13 -23 -10 -5 3 -11 1 -14 -4 -4 -5 -1 -13 5 -17 8 -5 9 -3 4 7 -5 8 -5 11 0
7 4 -4 16 -3 25 2 13 7 20 6 23 -4 4 -9 0 -12 -13 -9 -10 3 -21 0 -24 -6 -5
-8 -13 -8 -27 -1 -11 7 -17 16 -12 23 4 7 0 7 -10 -2 -20 -16 -23 -25 -4 -15
9 5 9 3 -1 -7 -11 -12 -14 -12 -22 1 -7 10 -10 11 -10 3 0 -7 -9 -13 -19 -13
-11 0 -23 -4 -26 -10 -3 -6 -11 -10 -17 -10 -6 0 -5 7 3 17 13 15 12 15 -8 2
-12 -7 -20 -15 -18 -18 7 -6 -16 -31 -28 -31 -6 0 -2 6 9 14 18 14 18 15 -6
14 -14 -1 -32 -6 -40 -12 -8 -6 -5 1 8 15 22 25 22 27 5 40 -16 13 -17 12 -4
-3 7 -10 10 -18 5 -19 -5 0 -17 -2 -27 -4 -9 -2 -15 1 -11 6 3 5 11 6 17 3 7
-4 7 -1 -1 7 -11 12 -16 11 -29 -6 -12 -16 -14 -16 -10 -3 3 10 2 20 -3 23 -6
4 -10 -1 -10 -9 0 -8 -4 -18 -10 -21 -5 -3 -7 0 -4 9 4 11 -1 14 -18 13 -12 0
-26 -6 -30 -12 -4 -5 -6 5 -3 23 2 22 0 30 -7 26 -7 -5 -9 -1 -5 9 3 9 -2 26
-13 39 -11 13 -19 18 -20 11 0 -6 7 -18 15 -26 13 -13 13 -16 -1 -21 -9 -3
-20 -4 -25 0 -5 3 -9 1 -9 -5 0 -5 6 -12 13 -15 6 -2 2 -4 -10 -2 -12 1 -25 5
-28 9 -3 4 -2 5 1 3 6 -4 44 30 44 39 0 8 -24 1 -32 -10 -4 -5 -10 -6 -15 -2
-8 9 17 28 28 21 4 -2 9 3 13 11 3 8 0 15 -6 15 -6 0 -8 3 -5 7 4 3 17 -3 30
-14 16 -15 28 -18 42 -13 31 13 39 11 25 -5 -7 -8 -16 -12 -21 -9 -5 3 -9 1
-9 -5 0 -5 9 -9 19 -8 11 0 18 4 15 8 -2 4 3 10 12 13 8 3 13 10 10 14 -3 5 1
9 9 9 13 0 13 -4 -1 -26 -16 -24 -15 -24 15 4 18 17 31 23 29 15 -2 -9 5 -15
19 -16 13 -1 20 3 16 9 -4 6 0 8 11 4 10 -4 19 -1 22 8 4 8 11 15 16 15 6 0 5
-7 -2 -15 -10 -13 -11 -18 -1 -28 10 -9 12 -9 9 2 -2 7 3 16 11 19 8 3 11 0 7
-7 -5 -7 -1 -9 10 -4 13 5 15 3 9 -7 -6 -9 -4 -11 4 -6 9 6 8 12 -4 26 -11 12
-13 20 -5 25 6 3 9 1 8 -6 -2 -7 5 -15 16 -17 10 -2 16 0 12 6 -3 5 4 9 17 8
13 -1 21 4 19 12 -1 8 2 11 8 7 8 -5 7 -12 -2 -23z m-450 -3 c-12 -8 -4 -13
15 -10 5 1 5 -4 2 -10 -5 -8 -10 -8 -18 0 -17 17 -17 40 0 34 12 -5 12 -7 1
-14z m136 -8 c-2 -3 -12 3 -22 13 -16 17 -16 18 5 5 12 -7 20 -15 17 -18z
m506 19 c0 -5 -4 -10 -10 -10 -5 0 -10 5 -10 10 0 6 5 10 10 10 6 0 10 -4 10
-10z m-1152 -12 c-2 -8 5 -12 17 -10 15 2 17 1 6 -7 -9 -6 -21 -5 -32 2 -13 8
-15 13 -6 19 16 10 17 10 15 -4z m786 -3 c-4 -8 -8 -15 -10 -15 -2 0 -4 7 -4
15 0 8 4 15 10 15 5 0 7 -7 4 -15z m410 7 c3 -5 -1 -9 -9 -9 -8 0 -12 4 -9 9
3 4 7 8 9 8 2 0 6 -4 9 -8z m-29 -33 c-4 -5 -12 -9 -18 -8 -9 0 -8 2 1 6 6 2
9 10 6 15 -4 7 -2 8 5 4 6 -4 9 -12 6 -17z m461 4 c-3 -19 -33 -26 -43 -11 -3
6 -1 8 4 5 6 -4 16 0 23 8 16 19 19 19 16 -2z m-997 -57 c9 -11 9 -16 0 -22
-8 -4 -9 -3 -5 4 4 7 2 12 -3 12 -6 0 -11 5 -11 10 0 14 5 13 19 -4z m841 -16
c0 -5 -2 -10 -4 -10 -3 0 -8 5 -11 10 -3 6 -1 10 4 10 6 0 11 -4 11 -10z
m-1110 -62 c0 -12 -28 3 -34 18 -4 11 -2 12 14 1 11 -6 20 -15 20 -19z m505
-8 c3 -5 1 -10 -4 -10 -6 0 -11 5 -11 10 0 6 2 10 4 10 3 0 8 -4 11 -10z
m-375 -10 c0 -5 -2 -10 -4 -10 -3 0 -8 5 -11 10 -3 6 -1 10 4 10 6 0 11 -4 11
-10z m20 -46 c0 -8 -5 -12 -10 -9 -6 4 -8 11 -5 16 9 14 15 11 15 -7z m27 -3
c0 -11 -5 -18 -9 -15 -4 3 -5 11 -1 19 7 21 12 19 10 -4z m90 -43 c-3 -8 -6
-5 -6 6 -1 11 2 17 5 13 3 -3 4 -12 1 -19z"/>
<path d="M1519 377 c-7 -16 -5 -37 4 -37 8 0 7 -3 -2 -9 -9 -6 -10 -11 -2 -15
6 -4 11 -2 11 5 0 9 4 9 15 -1 12 -10 14 -8 10 9 -2 12 1 21 8 21 16 0 -8 23
-28 26 -8 1 -15 2 -16 1z m28 -29 c-1 -10 -2 -18 -4 -18 -1 0 -7 8 -12 18 -7
14 -6 19 4 19 7 0 13 -9 12 -19z"/>
<path d="M1130 299 c0 -5 5 -7 10 -4 6 3 10 8 10 11 0 2 -4 4 -10 4 -5 0 -10
-5 -10 -11z"/>
<path d="M1288 283 c-9 -2 -19 -11 -22 -19 -4 -11 -1 -11 19 2 14 9 25 18 25
20 0 2 -1 3 -2 3 -2 -1 -10 -3 -20 -6z"/>
<path d="M2180 2591 c0 -7 -5 -9 -12 -5 -7 5 -8 3 -3 -5 5 -9 10 -10 18 -2 6
6 8 14 4 18 -4 3 -7 1 -7 -6z"/>
<path d="M345 2580 c-3 -6 1 -7 9 -4 18 7 21 14 7 14 -6 0 -13 -4 -16 -10z"/>
<path d="M870 2580 c0 -5 5 -10 10 -10 6 0 10 5 10 10 0 6 -4 10 -10 10 -5 0
-10 -4 -10 -10z"/>
<path d="M1350 2580 c0 -5 5 -10 10 -10 6 0 10 5 10 10 0 6 -4 10 -10 10 -5 0
-10 -4 -10 -10z"/>
<path d="M1830 2580 c0 -5 5 -10 10 -10 6 0 10 5 10 10 0 6 -4 10 -10 10 -5 0
-10 -4 -10 -10z"/>
<path d="M370 2565 c-7 -8 -11 -15 -9 -16 2 0 15 -2 29 -5 21 -3 22 -2 7 7 -9
6 -15 14 -12 20 10 14 -1 11 -15 -6z"/>
<path d="M540 2560 c0 -5 7 -7 15 -4 8 4 15 8 15 10 0 2 -7 4 -15 4 -8 0 -15
-4 -15 -10z"/>
<path d="M826 2554 c-3 -8 -2 -12 3 -9 5 3 13 1 16 -5 5 -8 11 -8 19 -1 7 6
17 7 21 3 5 -4 5 -1 1 6 -4 7 -12 10 -17 7 -5 -4 -9 -1 -9 4 0 17 -27 13 -34
-5z"/>
<path d="M1065 2560 c-4 -6 1 -7 11 -3 13 5 15 3 9 -7 -5 -9 -4 -11 3 -6 7 4
12 11 12 17 0 12 -27 12 -35 -1z"/>
<path d="M1306 2554 c-3 -8 -2 -12 3 -9 5 3 13 1 16 -5 5 -8 11 -8 19 -1 7 6
17 7 21 3 5 -4 5 -1 1 6 -4 7 -12 10 -17 7 -5 -4 -9 -1 -9 4 0 17 -27 13 -34
-5z"/>
<path d="M1545 2560 c-4 -6 1 -7 11 -3 13 5 15 3 9 -7 -5 -9 -4 -11 3 -6 7 4
12 11 12 17 0 12 -27 12 -35 -1z"/>
<path d="M1786 2554 c-3 -8 -2 -12 3 -9 5 3 13 1 16 -5 5 -8 11 -8 19 -1 7 6
17 7 21 3 5 -4 5 -1 1 6 -4 7 -12 10 -17 7 -5 -4 -9 -1 -9 4 0 17 -27 13 -34
-5z"/>
<path d="M2025 2560 c-4 -6 1 -7 11 -3 13 5 15 3 9 -7 -5 -9 -4 -11 3 -6 7 4
12 11 12 17 0 12 -27 12 -35 -1z"/>
<path d="M2226 2557 c3 -10 9 -15 12 -12 3 3 0 11 -7 18 -10 9 -11 8 -5 -6z"/>
<path d="M790 2549 c0 -5 5 -7 10 -4 6 3 10 8 10 11 0 2 -4 4 -10 4 -5 0 -10
-5 -10 -11z"/>
<path d="M1270 2549 c0 -5 5 -7 10 -4 6 3 10 8 10 11 0 2 -4 4 -10 4 -5 0 -10
-5 -10 -11z"/>
<path d="M1750 2549 c0 -5 5 -7 10 -4 6 3 10 8 10 11 0 2 -4 4 -10 4 -5 0 -10
-5 -10 -11z"/>
<path d="M223 2465 c0 -8 4 -12 9 -9 5 3 6 10 3 15 -9 13 -12 11 -12 -6z"/>
<path d="M215 2430 c-3 -5 -2 -10 4 -10 5 0 13 5 16 10 3 6 2 10 -4 10 -5 0
-13 -4 -16 -10z"/>
<path d="M2375 2250 c-3 -6 1 -7 9 -4 18 7 21 14 7 14 -6 0 -13 -4 -16 -10z"/>
<path d="M2386 2115 c-9 -26 -7 -32 5 -12 6 10 9 21 6 23 -2 3 -7 -2 -11 -11z"/>
<path d="M2375 1930 c-3 -6 1 -7 9 -4 18 7 21 14 7 14 -6 0 -13 -4 -16 -10z"/>
<path d="M2386 1795 c-9 -26 -7 -32 5 -12 6 10 9 21 6 23 -2 3 -7 -2 -11 -11z"/>
<path d="M2375 1610 c-3 -6 1 -7 9 -4 18 7 21 14 7 14 -6 0 -13 -4 -16 -10z"/>
<path d="M2386 1475 c-9 -26 -7 -32 5 -12 6 10 9 21 6 23 -2 3 -7 -2 -11 -11z"/>
<path d="M2375 1290 c-3 -6 1 -7 9 -4 18 7 21 14 7 14 -6 0 -13 -4 -16 -10z"/>
<path d="M2386 1155 c-9 -26 -7 -32 5 -12 6 10 9 21 6 23 -2 3 -7 -2 -11 -11z"/>
<path d="M2375 970 c-3 -6 1 -7 9 -4 18 7 21 14 7 14 -6 0 -13 -4 -16 -10z"/>
<path d="M2386 835 c-9 -26 -7 -32 5 -12 6 10 9 21 6 23 -2 3 -7 -2 -11 -11z"/>
<path d="M2375 650 c-3 -6 1 -7 9 -4 18 7 21 14 7 14 -6 0 -13 -4 -16 -10z"/>
<path d="M2330 485 c-17 -10 -20 -14 -9 -15 9 0 22 7 29 15 15 18 12 18 -20 0z"/>
<path d="M2230 410 c-9 -6 -10 -10 -3 -10 6 0 15 5 18 10 8 12 4 12 -15 0z"/>
<path d="M1957 314 c-3 -5 1 -15 9 -22 16 -14 18 -5 5 17 -5 7 -11 9 -14 5z"/>
<path d="M1606 148 c3 -5 10 -6 15 -3 13 9 11 12 -6 12 -8 0 -12 -4 -9 -9z"/>
<path d="M1136 82 c-3 -5 1 -9 9 -9 8 0 12 4 9 9 -3 4 -7 8 -9 8 -2 0 -6 -4
-9 -8z"/>
<path d="M1210 60 c0 -5 5 -10 11 -10 5 0 7 5 4 10 -3 6 -8 10 -11 10 -2 0 -4
-4 -4 -10z"/>
<path d="M1265 51 c-10 -17 17 -24 31 -7 8 9 9 11 2 6 -16 -13 -31 -13 -23 0
3 6 4 10 1 10 -3 0 -7 -4 -11 -9z"/>
</g>
</svg>
